<?xml version="1.0" encoding="utf-8"?>
<!-- Generator: Adobe Illustrator 21.0.2, SVG Export Plug-In . SVG Version: 6.00 Build 0)  -->
<svg version="1.1" id="Layer_1" xmlns="http://www.w3.org/2000/svg" xmlns:xlink="http://www.w3.org/1999/xlink" x="0px" y="0px"
	 width="119px" height="30px" viewBox="0 0 119 30" style="enable-background:new 0 0 119 30;" xml:space="preserve">
<style type="text/css">
	.st0{fill:#111111;}
</style>
<g>
	<path class="st0" d="M114,24.9H94c-6.3,0-6.6-1.4-6.6-4.6c0-3.1,0.7-4.5,6.7-4.5H114V24.9z M104.7,0H84.3v5.1h20.1
		c6.9,0,9,2.2,9.5,5.6H93.3c-7.7,0-11.1,3-11.1,9.6c0,6.7,3.5,9.7,11.2,9.7H119V12.9C119,4.2,114.3,0,104.7,0"/>
	<path class="st0" d="M54.5,5h10.1c5.9,0,6.6,1.4,6.6,4.6c0,3-0.6,4.4-6.7,4.4h-20C44.6,7.6,46.3,5,54.5,5 M44.7,19.1h20.5
		c7.7,0,11.1-2.9,11.1-9.5c0-6.7-3.4-9.6-11.2-9.6h-11C41.2,0,39.4,7.2,39.4,15s1.8,15,14.7,15H75v-5.1H54.5
		C47.4,24.9,45.4,23,44.7,19.1"/>
	<polygon class="st0" points="20.8,15.3 36.8,0 29.4,0 5.1,23.3 5.1,0 0,0 0,30 5.3,30 17.1,18.8 30.4,30 38.4,30 	"/>
</g>
</svg>
