<?xml version="1.0" encoding="utf-8"?>
<!-- Generator: Adobe Illustrator 21.0.2, SVG Export Plug-In . SVG Version: 6.00 Build 0)  -->
<svg version="1.1" id="Layer_1" xmlns="http://www.w3.org/2000/svg" xmlns:xlink="http://www.w3.org/1999/xlink" x="0px" y="0px"
	 width="154px" height="60px" viewBox="0 0 154 60" style="enable-background:new 0 0 154 60;" xml:space="preserve">
<style type="text/css">
	.st0{fill:#FFFFFF;}
	.st1{fill:#111111;}
</style>
<rect class="st0" width="154" height="60"/>
<rect x="2" class="st1" width="152" height="60"/>
<rect x="2" y="7" class="st0" width="67.2" height="23"/>
<g>
	<path class="st0" d="M22.9,40.8c-0.1-0.3-0.2-0.6-0.4-0.9c-0.1-0.3-0.3-0.5-0.6-0.7c-0.2-0.2-0.5-0.4-0.8-0.5
		c-0.3-0.1-0.7-0.2-1.1-0.2c-0.6,0-1.1,0.1-1.6,0.4c-0.4,0.2-0.8,0.6-1.1,1c-0.3,0.4-0.5,0.9-0.6,1.4c-0.1,0.5-0.2,1.1-0.2,1.6
		s0.1,1.1,0.2,1.6c0.1,0.5,0.3,1,0.6,1.4c0.3,0.4,0.6,0.7,1.1,1c0.4,0.2,1,0.4,1.6,0.4c0.4,0,0.8-0.1,1.2-0.2
		c0.3-0.2,0.6-0.4,0.9-0.6c0.2-0.3,0.4-0.6,0.6-1c0.1-0.4,0.2-0.8,0.3-1.2h2c0,0.7-0.2,1.3-0.4,1.9c-0.3,0.6-0.6,1.1-1,1.5
		c-0.4,0.4-0.9,0.7-1.5,1c-0.6,0.2-1.2,0.3-1.9,0.3c-0.9,0-1.6-0.2-2.3-0.5c-0.7-0.3-1.3-0.7-1.7-1.3s-0.8-1.2-1.1-1.9
		s-0.4-1.5-0.4-2.3c0-0.8,0.1-1.6,0.4-2.3s0.6-1.4,1.1-1.9s1-1,1.7-1.3c0.7-0.3,1.4-0.5,2.3-0.5c0.6,0,1.2,0.1,1.8,0.3
		c0.6,0.2,1.1,0.4,1.5,0.8c0.4,0.3,0.8,0.7,1,1.2c0.3,0.5,0.4,1,0.5,1.6H22.9z"/>
	<path class="st0" d="M28.7,37.1h2v6.7c0,0.4,0,0.8,0.1,1.2c0,0.4,0.1,0.7,0.3,1.1c0.2,0.3,0.4,0.6,0.8,0.8c0.4,0.2,0.9,0.3,1.5,0.3
		s1.2-0.1,1.5-0.3c0.4-0.2,0.6-0.5,0.8-0.8c0.2-0.3,0.3-0.7,0.3-1.1c0-0.4,0.1-0.8,0.1-1.2v-6.7h2v7.3c0,0.7-0.1,1.4-0.3,1.9
		s-0.5,1-1,1.4s-0.9,0.6-1.5,0.8c-0.6,0.2-1.2,0.3-1.9,0.3s-1.3-0.1-1.9-0.3s-1.1-0.5-1.5-0.8s-0.7-0.8-1-1.4
		c-0.2-0.5-0.3-1.2-0.3-1.9V37.1z"/>
	<path class="st0" d="M42.4,37.1h5.5c1.3,0,2.2,0.3,2.8,0.8s0.9,1.3,0.9,2.3c0,0.5-0.1,1-0.2,1.4c-0.2,0.4-0.3,0.6-0.6,0.9
		s-0.4,0.4-0.6,0.5c-0.2,0.1-0.4,0.2-0.5,0.2v0c0.2,0,0.4,0.1,0.6,0.2c0.2,0.1,0.4,0.2,0.6,0.4c0.2,0.2,0.3,0.4,0.4,0.7
		c0.1,0.3,0.2,0.7,0.2,1.1c0,0.7,0.1,1.3,0.2,1.8c0.1,0.5,0.3,0.9,0.5,1.2h-2.1c-0.1-0.2-0.2-0.5-0.3-0.8c0-0.3,0-0.6,0-0.9
		c0-0.5,0-1-0.1-1.4c-0.1-0.4-0.2-0.7-0.4-0.9c-0.2-0.3-0.4-0.4-0.7-0.6c-0.3-0.1-0.7-0.2-1.1-0.2h-2.9v4.7h-2V37.1z M44.4,42.3h3.3
		c0.6,0,1.1-0.2,1.5-0.5c0.3-0.3,0.5-0.8,0.5-1.4c0-0.4-0.1-0.7-0.2-0.9c-0.1-0.2-0.3-0.4-0.4-0.5c-0.2-0.1-0.4-0.2-0.6-0.3
		c-0.2,0-0.5-0.1-0.7-0.1h-3.2V42.3z"/>
	<path class="st0" d="M55.8,37.1h5.5c1.3,0,2.2,0.3,2.8,0.8c0.6,0.5,0.9,1.3,0.9,2.3c0,0.5-0.1,1-0.2,1.4c-0.2,0.4-0.3,0.6-0.6,0.9
		c-0.2,0.2-0.4,0.4-0.6,0.5c-0.2,0.1-0.4,0.2-0.5,0.2v0c0.2,0,0.4,0.1,0.6,0.2c0.2,0.1,0.4,0.2,0.6,0.4c0.2,0.2,0.3,0.4,0.4,0.7
		s0.2,0.7,0.2,1.1c0,0.7,0.1,1.3,0.2,1.8c0.1,0.5,0.3,0.9,0.5,1.2h-2.1c-0.1-0.2-0.2-0.5-0.3-0.8c0-0.3,0-0.6,0-0.9
		c0-0.5,0-1-0.1-1.4c-0.1-0.4-0.2-0.7-0.4-0.9c-0.2-0.3-0.4-0.4-0.7-0.6c-0.3-0.1-0.7-0.2-1.1-0.2h-2.9v4.7h-2V37.1z M57.8,42.3h3.3
		c0.6,0,1.1-0.2,1.5-0.5c0.3-0.3,0.5-0.8,0.5-1.4c0-0.4-0.1-0.7-0.2-0.9s-0.3-0.4-0.4-0.5s-0.4-0.2-0.6-0.3c-0.2,0-0.5-0.1-0.7-0.1
		h-3.2V42.3z"/>
	<path class="st0" d="M69.1,37.1h2v11.4h-2V37.1z"/>
	<path class="st0" d="M83.4,40.8c-0.1-0.3-0.2-0.6-0.4-0.9s-0.3-0.5-0.6-0.7c-0.2-0.2-0.5-0.4-0.8-0.5c-0.3-0.1-0.7-0.2-1.1-0.2
		c-0.6,0-1.1,0.1-1.6,0.4c-0.4,0.2-0.8,0.6-1.1,1c-0.3,0.4-0.5,0.9-0.6,1.4c-0.1,0.5-0.2,1.1-0.2,1.6s0.1,1.1,0.2,1.6
		c0.1,0.5,0.3,1,0.6,1.4c0.3,0.4,0.6,0.7,1.1,1c0.4,0.2,1,0.4,1.6,0.4c0.4,0,0.8-0.1,1.2-0.2c0.3-0.2,0.6-0.4,0.9-0.6
		c0.2-0.3,0.4-0.6,0.6-1c0.1-0.4,0.2-0.8,0.3-1.2h2c0,0.7-0.2,1.3-0.4,1.9c-0.3,0.6-0.6,1.1-1,1.5c-0.4,0.4-0.9,0.7-1.5,1
		c-0.6,0.2-1.2,0.3-1.9,0.3c-0.9,0-1.6-0.2-2.3-0.5c-0.7-0.3-1.3-0.7-1.7-1.3c-0.5-0.5-0.8-1.2-1.1-1.9c-0.3-0.7-0.4-1.5-0.4-2.3
		c0-0.8,0.1-1.6,0.4-2.3c0.3-0.7,0.6-1.4,1.1-1.9c0.5-0.5,1-1,1.7-1.3c0.7-0.3,1.4-0.5,2.3-0.5c0.6,0,1.2,0.1,1.8,0.3
		c0.6,0.2,1.1,0.4,1.5,0.8c0.4,0.3,0.8,0.7,1,1.2c0.3,0.5,0.4,1,0.5,1.6H83.4z"/>
	<path class="st0" d="M89.1,37.1h2v6.7c0,0.4,0,0.8,0.1,1.2c0,0.4,0.1,0.7,0.3,1.1s0.4,0.6,0.8,0.8c0.4,0.2,0.9,0.3,1.5,0.3
		c0.7,0,1.2-0.1,1.5-0.3c0.4-0.2,0.6-0.5,0.8-0.8s0.3-0.7,0.3-1.1c0-0.4,0.1-0.8,0.1-1.2v-6.7h2v7.3c0,0.7-0.1,1.4-0.3,1.9
		s-0.5,1-1,1.4c-0.4,0.4-0.9,0.6-1.5,0.8s-1.2,0.3-1.9,0.3s-1.3-0.1-1.9-0.3c-0.6-0.2-1.1-0.5-1.5-0.8c-0.4-0.4-0.7-0.8-1-1.4
		c-0.2-0.5-0.3-1.2-0.3-1.9V37.1z"/>
	<path class="st0" d="M102.9,37.1h2v9.7h5.8v1.7h-7.8V37.1z"/>
	<path class="st0" d="M114,37.1h2v6.7c0,0.4,0,0.8,0.1,1.2c0,0.4,0.1,0.7,0.3,1.1s0.4,0.6,0.8,0.8c0.4,0.2,0.9,0.3,1.5,0.3
		c0.7,0,1.2-0.1,1.5-0.3c0.4-0.2,0.6-0.5,0.8-0.8s0.3-0.7,0.3-1.1c0-0.4,0.1-0.8,0.1-1.2v-6.7h2v7.3c0,0.7-0.1,1.4-0.3,1.9
		s-0.5,1-1,1.4c-0.4,0.4-0.9,0.6-1.5,0.8s-1.2,0.3-1.9,0.3s-1.3-0.1-1.9-0.3c-0.6-0.2-1.1-0.5-1.5-0.8c-0.4-0.4-0.7-0.8-1-1.4
		c-0.2-0.5-0.3-1.2-0.3-1.9V37.1z"/>
	<path class="st0" d="M127.8,37.1h2.8l3.2,8.9h0l3.1-8.9h2.8v11.4h-1.9v-8.8h0l-3.2,8.8h-1.6l-3.2-8.8h0v8.8h-1.9V37.1z"/>
</g>
<g>
	<path d="M15.8,15.9c0.2-0.5,0.4-1,0.8-1.4c0.3-0.4,0.8-0.7,1.3-1c0.5-0.2,1.1-0.3,1.8-0.3c0.5,0,1,0.1,1.5,0.2
		c0.5,0.2,0.9,0.4,1.2,0.7c0.4,0.3,0.6,0.7,0.8,1.1s0.3,0.9,0.3,1.5c0,0.6-0.1,1.1-0.3,1.5c-0.2,0.4-0.4,0.8-0.7,1.1s-0.6,0.6-1,0.9
		c-0.4,0.3-0.8,0.5-1.1,0.8c-0.4,0.2-0.8,0.5-1.1,0.8c-0.4,0.3-0.7,0.6-1,1h5.3v2h-8.2c0-0.6,0.1-1.2,0.3-1.7
		c0.2-0.5,0.4-0.9,0.8-1.3c0.3-0.4,0.7-0.7,1.1-1c0.4-0.3,0.9-0.6,1.4-1c0.2-0.2,0.5-0.3,0.8-0.5c0.3-0.2,0.5-0.4,0.8-0.6
		c0.2-0.2,0.4-0.5,0.6-0.7c0.2-0.3,0.2-0.6,0.2-0.9c0-0.5-0.2-1-0.5-1.3c-0.3-0.3-0.7-0.5-1.2-0.5c-0.3,0-0.6,0.1-0.8,0.2
		c-0.2,0.2-0.4,0.4-0.6,0.6s-0.2,0.5-0.3,0.8s-0.1,0.6-0.1,0.9h-2.2C15.5,17,15.6,16.4,15.8,15.9z"/>
	<path d="M26.1,16.2c0.2-0.7,0.5-1.3,0.9-1.8c0.4-0.4,0.8-0.8,1.3-1c0.5-0.2,1-0.3,1.6-0.3c0.6,0,1.1,0.1,1.6,0.3
		c0.5,0.2,0.9,0.5,1.3,1c0.4,0.4,0.7,1,0.9,1.8s0.3,1.7,0.3,2.7c0,1.1-0.1,2.1-0.3,2.8s-0.5,1.4-0.9,1.8c-0.4,0.4-0.8,0.8-1.3,1
		s-1,0.3-1.6,0.3c-0.6,0-1.1-0.1-1.6-0.3s-0.9-0.5-1.3-1c-0.4-0.4-0.7-1-0.9-1.8c-0.2-0.8-0.3-1.7-0.3-2.8
		C25.8,17.8,25.9,16.9,26.1,16.2z M28.1,20.1c0,0.5,0.1,0.9,0.2,1.3c0.1,0.4,0.3,0.8,0.5,1.1c0.2,0.3,0.6,0.4,1.1,0.4
		c0.5,0,0.8-0.1,1.1-0.4c0.3-0.3,0.4-0.7,0.5-1.1c0.1-0.4,0.2-0.9,0.2-1.3c0-0.5,0-0.8,0-1.2c0-0.2,0-0.4,0-0.7c0-0.3,0-0.6-0.1-0.8
		c0-0.3-0.1-0.6-0.2-0.9c-0.1-0.3-0.2-0.5-0.3-0.8c-0.1-0.2-0.3-0.4-0.5-0.5S30.2,15,29.9,15c-0.3,0-0.6,0.1-0.8,0.2
		c-0.2,0.1-0.4,0.3-0.5,0.5c-0.1,0.2-0.2,0.5-0.3,0.8c-0.1,0.3-0.1,0.6-0.2,0.9c0,0.3-0.1,0.6-0.1,0.8c0,0.3,0,0.5,0,0.7
		C28.1,19.2,28.1,19.6,28.1,20.1z"/>
	<path d="M39.9,24.6v-7.3h-2.8v-1.7c0.4,0,0.8,0,1.1-0.1c0.4-0.1,0.7-0.2,1-0.4c0.3-0.2,0.5-0.4,0.7-0.7s0.3-0.6,0.4-1.1h1.8v11.2
		H39.9z"/>
	<path d="M52.1,15.3c-0.3-0.3-0.6-0.4-1-0.4c-0.4,0-0.7,0.1-1,0.4c-0.3,0.2-0.5,0.5-0.6,0.9s-0.3,0.7-0.4,1.1
		C49,17.6,49,17.9,49,18.3l0,0c0.3-0.4,0.7-0.8,1.1-1c0.4-0.2,0.9-0.3,1.4-0.3c0.5,0,0.9,0.1,1.4,0.3s0.8,0.5,1.2,0.8
		c0.3,0.3,0.5,0.7,0.7,1.2s0.2,0.9,0.2,1.3c0,0.6-0.1,1.1-0.3,1.6s-0.5,0.9-0.8,1.3s-0.8,0.7-1.2,0.9c-0.5,0.2-1,0.3-1.6,0.3
		c-0.8,0-1.5-0.2-2.1-0.5c-0.6-0.3-1-0.8-1.3-1.3s-0.6-1.2-0.7-1.8c-0.1-0.7-0.2-1.4-0.2-2.1c0-0.7,0.1-1.4,0.2-2.1
		c0.2-0.7,0.4-1.3,0.8-1.9c0.4-0.6,0.8-1,1.4-1.4c0.6-0.4,1.2-0.5,2-0.5c0.5,0,0.9,0.1,1.3,0.2s0.8,0.3,1.1,0.6
		c0.3,0.3,0.6,0.6,0.8,1c0.2,0.4,0.3,0.8,0.4,1.3h-2.2C52.6,15.9,52.4,15.5,52.1,15.3z M50.2,18.9c-0.2,0.1-0.4,0.3-0.6,0.5
		c-0.1,0.2-0.3,0.4-0.3,0.7c-0.1,0.2-0.1,0.5-0.1,0.8c0,0.3,0,0.5,0.1,0.8c0.1,0.3,0.2,0.5,0.4,0.7c0.2,0.2,0.3,0.4,0.6,0.5
		c0.2,0.1,0.5,0.2,0.8,0.2c0.3,0,0.5-0.1,0.7-0.2c0.2-0.1,0.4-0.3,0.5-0.5s0.3-0.4,0.3-0.7c0.1-0.2,0.1-0.5,0.1-0.8
		c0-0.3,0-0.5-0.1-0.8c-0.1-0.3-0.2-0.5-0.3-0.7s-0.3-0.4-0.5-0.5c-0.2-0.1-0.5-0.2-0.8-0.2C50.7,18.8,50.4,18.8,50.2,18.9z"/>
</g>
</svg>
